<svg width="62" height="62" viewBox="0 0 62 62" fill="none" xmlns="http://www.w3.org/2000/svg">
<path d="M52.3125 29.0625H9.6875C8.525 29.0625 7.75 28.2875 7.75 27.125V3.875C7.75 2.7125 8.525 1.9375 9.6875 1.9375H52.3125C53.475 1.9375 54.25 2.7125 54.25 3.875V27.125C54.25 28.2875 53.475 29.0625 52.3125 29.0625ZM11.625 25.1875H50.375V5.8125H11.625V25.1875Z" fill="black"/>
<path d="M31 23.25C27.7062 23.25 25.1875 19.7625 25.1875 15.5C25.1875 11.2375 27.7062 7.75 31 7.75C34.2937 7.75 36.8125 11.2375 36.8125 15.5C36.8125 19.7625 34.2937 23.25 31 23.25Z" fill="black"/>
<path d="M57.9312 31.9688C57.5437 31.3875 56.9624 31 56.1875 31C51.9249 31 47.8562 32.9375 45.3374 36.425L43.5937 38.75C41.4624 41.2688 38.1687 42.625 34.875 42.625H29.0625C27.9 42.625 27.125 41.85 27.125 40.6875C27.125 39.525 27.9 38.75 29.0625 38.75H32.7437C35.8437 38.75 38.75 36.2313 38.75 33.1313V32.9375C38.75 31.9688 37.7812 31 36.8125 31H24.9937C18.0187 31 12.4 34.1 9.29995 39.1375L4.0687 47.275C3.6812 47.8562 3.6812 48.6312 4.0687 49.2125L9.8812 58.9C10.075 59.2875 10.6562 59.675 11.0437 59.8687C11.2375 59.8687 11.2375 59.8687 11.4312 59.8687C11.8187 59.8687 12.2062 59.675 12.5937 59.4813C19.9562 54.6375 28.4812 52.1187 37.2 52.1187C43.5937 52.1187 49.4062 48.6313 52.5062 43.0125L57.7374 33.7125C58.1249 33.325 58.125 32.55 57.9312 31.9688Z" fill="black"/>
<path d="M17.4375 3.875H15.5H9.6875V9.6875V11.625V13.5625C15.1125 13.5625 19.375 9.3 19.375 3.875H17.4375Z" fill="black"/>
<path d="M9.6875 19.375V21.3125V27.125H15.5H17.4375H19.375C19.375 21.7 15.1125 17.4375 9.6875 17.4375V19.375Z" fill="black"/>
<path d="M44.5625 27.125H46.5H52.3125V21.3125V19.375V17.4375C46.8875 17.4375 42.625 21.7 42.625 27.125H44.5625Z" fill="black"/>
<path d="M52.3125 11.625V9.6875V3.875H46.5H44.5625H42.625C42.625 9.3 46.8875 13.5625 52.3125 13.5625V11.625Z" fill="black"/>
</svg>
