<svg width="57" height="54" viewBox="0 0 57 54" fill="none" xmlns="http://www.w3.org/2000/svg">
<path d="M43.9237 46.492H39.7051V40.3936H40.8176C42.3276 40.3913 43.775 39.7972 44.8427 38.7415C45.9104 37.6858 46.5113 36.2546 46.5136 34.7616V22.1424H47.4481C47.6842 22.1424 47.9105 22.0497 48.0774 21.8847C48.2444 21.7196 48.3381 21.4958 48.3381 21.2624V16.2552L50.6966 18.2C50.7896 18.2748 50.906 18.3152 51.0259 18.3144C51.1011 18.3148 51.1753 18.2983 51.2431 18.2663C51.3109 18.2343 51.3706 18.1876 51.4175 18.1296C51.4608 18.0784 51.4933 18.0193 51.5132 17.9555C51.5331 17.8918 51.5399 17.8248 51.5333 17.7584C51.5267 17.692 51.5067 17.6276 51.4746 17.569C51.4425 17.5103 51.3989 17.4586 51.3463 17.4168L48.3826 14.944V11.5472L56.2324 6.9536C56.5865 6.74821 56.8435 6.41217 56.947 6.01939C57.0505 5.62662 56.9919 5.20928 56.7842 4.8592C56.5765 4.50911 56.2366 4.25495 55.8394 4.15263C55.4422 4.05031 55.0201 4.10821 54.666 4.3136L46.4157 9.1536H43.63C43.3601 9.15359 43.1011 9.259 42.9094 9.44689C42.7177 9.63478 42.6089 9.88993 42.6065 10.1568V21.2184C42.6174 21.4483 42.7146 21.666 42.8792 21.8288C43.0438 21.9915 43.264 22.0877 43.4965 22.0984V34.7616C43.4965 35.4618 43.2152 36.1333 42.7145 36.6284C42.2138 37.1235 41.5346 37.4016 40.8265 37.4016H39.7051V2.8968C39.7051 2.21296 39.4304 1.55714 38.9413 1.07359C38.4523 0.59005 37.789 0.318398 37.0974 0.318398H6.83742C6.14499 0.318394 5.4808 0.589764 4.99034 1.07306C4.49989 1.55635 4.22317 2.21216 4.22082 2.8968V46.492H0.0200195V53.6816H43.9237V46.492ZM32.6385 20.6288H11.2785V8.7664H32.6385V20.6288Z" fill="black"/>
</svg>
