<svg width="21" height="23" viewBox="0 0 21 23" fill="none" xmlns="http://www.w3.org/2000/svg">
<path d="M10.5 0C4.70039 0 0 5.14805 0 11.5C0 17.852 4.70039 23 10.5 23C16.2996 23 21 17.852 21 11.5C21 5.14805 16.2996 0 10.5 0ZM14.4375 12.5781H11.4844V15.8125C11.4844 16.4055 11.0414 16.8906 10.5369 16.8906C9.95859 16.8906 9.51562 16.4055 9.51562 15.8125V12.5781H6.5625C6.02109 12.5781 5.57812 12.093 5.57812 11.5C5.57812 10.907 6.02109 10.4219 6.5625 10.4219H9.51562V7.1875C9.51562 6.59453 9.95859 6.10938 10.5 6.10938C11.0414 6.10938 11.4844 6.59453 11.4844 7.1875V10.4219H14.4375C14.9789 10.4219 15.4219 10.907 15.4219 11.5C15.4219 12.093 14.9789 12.5781 14.4375 12.5781Z" fill="#25A50E"/>
</svg>
