<svg width="71" height="70" viewBox="0 0 71 70" fill="none" xmlns="http://www.w3.org/2000/svg">
<path d="M35.5 63.4375C36.1127 63.4375 36.6094 62.9478 36.6094 62.3438C36.6094 61.7397 36.1127 61.25 35.5 61.25C34.8873 61.25 34.3906 61.7397 34.3906 62.3438C34.3906 62.9478 34.8873 63.4375 35.5 63.4375Z" fill="black"/>
<path d="M47.2927 49.6344C52.3573 47.032 56.3899 42.8297 58.745 37.7C61.1002 32.5703 61.6417 26.81 60.2829 21.3409C58.9242 15.8719 55.7436 11.0104 51.2504 7.53466C46.7572 4.0589 41.2112 2.16983 35.5 2.16983C29.7888 2.16983 24.2428 4.0589 19.7496 7.53466C15.2564 11.0104 12.0758 15.8719 10.7171 21.3409C9.35826 26.81 9.89979 32.5703 12.255 37.7C14.6101 42.8297 18.6427 47.032 23.7073 49.6344C9.44078 50.6844 2.21875 53.6703 2.21875 58.5156C2.21875 66.1719 20.3127 67.8125 35.5 67.8125C50.6873 67.8125 68.7812 66.2047 68.7812 58.5156C68.7812 53.6703 61.5592 50.6844 47.2927 49.6344ZM16.6406 27.3437C16.6406 23.6663 17.7467 20.0713 19.819 17.0136C21.8913 13.9559 24.8367 11.5727 28.2828 10.1654C31.7289 8.75805 35.5209 8.38983 39.1793 9.10727C42.8376 9.82472 46.1981 11.5956 48.8356 14.196C51.4731 16.7964 53.2693 20.1095 53.997 23.7163C54.7247 27.3231 54.3512 31.0617 52.9238 34.4593C51.4964 37.8568 49.0791 40.7608 45.9777 42.8039C42.8763 44.847 39.23 45.9375 35.5 45.9375C30.4982 45.9375 25.7012 43.9785 22.1644 40.4915C18.6276 37.0045 16.6406 32.2751 16.6406 27.3437ZM35.5 65.625C16.3411 65.625 4.4375 62.9016 4.4375 58.5156C4.4375 54.9281 12.3917 52.4453 26.2589 51.6578L28.4111 53.8453C21.4442 54.1734 12.2031 55.3 12.2031 58.5156C12.2031 62.1578 23.9847 63.1094 31.0625 63.3609C31.3567 63.3609 31.6389 63.2457 31.8469 63.0406C32.055 62.8355 32.1719 62.5573 32.1719 62.2672C32.1719 61.9771 32.055 61.6989 31.8469 61.4938C31.6389 61.2887 31.3567 61.1734 31.0625 61.1734C20.4458 60.8016 15.5313 59.2922 14.5217 58.5156C15.498 57.75 20.2794 56.3281 30.5078 55.8797L33.2812 58.625C33.8783 59.1442 34.6484 59.4284 35.4445 59.4234C36.2625 59.4136 37.0498 59.1148 37.6633 58.5813L40.3923 55.8797C50.6984 56.2844 55.4687 57.75 56.4561 58.5156C55.4687 59.2922 50.5431 60.8016 39.9153 61.1734C39.6211 61.1734 39.3389 61.2887 39.1309 61.4938C38.9228 61.6989 38.8059 61.9771 38.8059 62.2672C38.8059 62.5573 38.9228 62.8355 39.1309 63.0406C39.3389 63.2457 39.6211 63.3609 39.9153 63.3609C46.9377 63.1094 58.7747 62.1578 58.7747 58.5156C58.7747 55.3 49.5336 54.1406 42.5667 53.7906L44.7189 51.6031C58.6083 52.5 66.5625 54.9281 66.5625 58.5156C66.5625 62.9016 54.6589 65.625 35.5 65.625Z" fill="black"/>
<path d="M49.9995 18.2547C49.9426 18.0753 49.8397 17.9134 49.7009 17.7846C49.562 17.6558 49.3918 17.5645 49.2067 17.5194C49.0217 17.4744 48.8279 17.4771 48.6442 17.5273C48.4605 17.5776 48.293 17.6736 48.1579 17.8062L45.2292 20.7047L42.6111 20.1797L42.0897 17.6094L45.0184 14.7219C45.1557 14.5889 45.2555 14.423 45.308 14.2405C45.3606 14.058 45.3641 13.8652 45.3182 13.681C45.2723 13.4967 45.1786 13.3274 45.0463 13.1897C44.914 13.0519 44.7477 12.9505 44.5636 12.8953C43.1104 12.4476 41.5607 12.4005 40.0823 12.7591C38.6039 13.1177 37.2533 13.8684 36.1767 14.9297C34.08 16.9969 34.1243 20.7156 34.2353 22.2469L29.2431 27.1797C27.6859 28.7151 25.8878 29.9929 23.9181 30.9641C23.2823 31.4342 22.7564 32.0335 22.376 32.7214C21.9957 33.4094 21.7696 34.1698 21.7133 34.9514C21.657 35.7329 21.7716 36.5173 22.0495 37.2513C22.3274 37.9854 22.762 38.652 23.324 39.2061C23.8859 39.7601 24.5621 40.1886 25.3066 40.4626C26.0512 40.7366 26.8467 40.8496 27.6394 40.7941C28.4321 40.7385 29.2035 40.5157 29.9013 40.1406C30.599 39.7656 31.2069 39.2471 31.6837 38.6203C32.6608 36.6759 33.9494 34.8994 35.5 33.3594L40.4922 28.4375C42.0453 28.5578 45.8283 28.5906 47.925 26.5234C49.0065 25.4652 49.7721 24.1341 50.138 22.6758C50.5039 21.2174 50.4559 19.688 49.9995 18.2547ZM28.3334 35.8094C28.1256 36.0131 27.8444 36.1274 27.5513 36.1274C27.2582 36.1274 26.977 36.0131 26.7692 35.8094C26.6652 35.7077 26.5827 35.5867 26.5264 35.4534C26.47 35.3202 26.441 35.1772 26.441 35.0328C26.441 34.8884 26.47 34.7455 26.5264 34.6122C26.5827 34.4789 26.6652 34.3579 26.7692 34.2562C26.977 34.0525 27.2582 33.9382 27.5513 33.9382C27.8444 33.9382 28.1256 34.0525 28.3334 34.2562C28.4374 34.3579 28.5199 34.4789 28.5762 34.6122C28.6326 34.7455 28.6616 34.8884 28.6616 35.0328C28.6616 35.1772 28.6326 35.3202 28.5762 35.4534C28.5199 35.5867 28.4374 35.7077 28.3334 35.8094Z" fill="black"/>
</svg>
