<svg width="43" height="53" viewBox="0 0 43 53" fill="none" xmlns="http://www.w3.org/2000/svg">
<path d="M42.4747 20.9792C42.4747 9.39204 33.0816 0 21.4956 0C9.90843 0 0.516385 9.39204 0.516385 20.9792C0.516385 21.0112 0.520802 21.0443 0.520802 21.0763C0.511969 21.3115 0.502031 22.0049 0.622385 23.0936C0.625698 23.1312 0.632323 23.1687 0.636739 23.2074C0.688635 23.6535 0.764823 24.1625 0.868614 24.7267C0.927135 25.048 0.991177 25.366 1.06405 25.6807C2.3758 31.5482 6.79136 42.1438 21.4911 52.989C21.4922 52.9934 21.4933 52.9956 21.4944 53C21.4956 52.9978 21.4978 52.9978 21.5 52.9956C21.5011 52.9978 21.5033 52.9978 21.5044 53C21.5055 52.9956 21.5066 52.9934 21.5077 52.989C36.4073 41.9948 40.7401 31.2612 41.9856 25.4455C42.0165 25.2987 42.0496 25.1518 42.0772 25.0039C42.5763 22.4709 42.4747 20.9792 42.4747 20.9792ZM23.0138 31.0436V34.4721H19.7178V31.2777C17.4642 31.1784 15.278 30.57 13.9994 29.8302L15.0097 25.896C16.4219 26.6678 18.4061 27.3745 20.5923 27.3745C22.5125 27.3745 23.8231 26.6347 23.8231 25.2898C23.8231 24.0112 22.7455 23.2041 20.2578 22.3638C16.656 21.1525 14.2036 19.472 14.2036 16.2092C14.2036 13.2478 16.2861 10.9279 19.8857 10.2213V7.02802H23.1816V9.98608C25.4374 10.0888 26.9523 10.5603 28.0587 11.0969L27.0826 14.8974C26.2114 14.5264 24.6667 13.7524 22.242 13.7524C20.0535 13.7524 19.3457 14.6954 19.3457 15.6372C19.3457 16.7458 20.5239 17.4547 23.3837 18.5301C27.3874 19.9435 29.0006 21.7929 29.0006 24.8217C29.0006 27.8151 26.8828 30.369 23.0138 31.0436Z" fill="black"/>
</svg>
